<svg xmlns="http://www.w3.org/2000/svg" width="1600" height="900" viewBox="0 0 1600 900" role="img" aria-labelledby="title desc">
  <title id="title">K9 Blitz Barkley Ville development board schematic</title>
  <desc id="desc">A non-production schematic derived from the supplied tabletop photograph. It preserves major board regions for geometry and interaction development but does not claim exact artwork or space topology.</desc>
  <defs>
    <linearGradient id="grass" x1="0" y1="0" x2="0" y2="1">
      <stop offset="0" stop-color="#78d36b"/>
      <stop offset="1" stop-color="#45ad59"/>
    </linearGradient>
    <filter id="shadow" x="-20%" y="-20%" width="140%" height="140%">
      <feDropShadow dx="0" dy="8" stdDeviation="8" flood-opacity=".28"/>
    </filter>
  </defs>
  <rect width="1600" height="900" rx="28" fill="#39a9e6"/>
  <rect x="18" y="18" width="1564" height="864" rx="24" fill="url(#grass)" stroke="#15202a" stroke-width="10"/>
  <text x="800" y="92" text-anchor="middle" font-family="system-ui,sans-serif" font-size="72" font-weight="900" fill="#f4b52e" stroke="#1b1b1b" stroke-width="5" paint-order="stroke">K9 BLITZ</text>
  <text x="800" y="132" text-anchor="middle" font-family="system-ui,sans-serif" font-size="28" font-weight="700" fill="#17202a">The Ultimate Dog Training Challenge!</text>
  <path d="M155 760 C320 760 410 805 530 770 S690 655 820 705 S1060 825 1240 700 S1470 610 1455 450 S1330 250 1185 235 S940 340 805 300 S590 160 395 205 S110 250 150 410 S370 420 410 520 S270 650 155 610" fill="none" stroke="#f7f4e9" stroke-width="92" stroke-linecap="round" stroke-linejoin="round" filter="url(#shadow)"/>
  <path d="M155 760 C320 760 410 805 530 770 S690 655 820 705 S1060 825 1240 700 S1470 610 1455 450 S1330 250 1185 235 S940 340 805 300 S590 160 395 205 S110 250 150 410 S370 420 410 520 S270 650 155 610" fill="none" stroke="#d9d6cb" stroke-width="70" stroke-linecap="round" stroke-linejoin="round"/>
  <g stroke="#fff" stroke-width="4">
    <circle cx="315" cy="762" r="31" fill="#d8413d"/><circle cx="380" cy="762" r="31" fill="#2f80c9"/><circle cx="445" cy="750" r="31" fill="#f2cb3b"/><circle cx="510" cy="720" r="31" fill="#2f9d55"/>
    <circle cx="620" cy="663" r="31" fill="#d8413d"/><circle cx="720" cy="675" r="31" fill="#f2cb3b"/><circle cx="845" cy="725" r="31" fill="#2f80c9"/><circle cx="965" cy="760" r="31" fill="#2f9d55"/>
    <circle cx="1120" cy="753" r="31" fill="#d8413d"/><circle cx="1275" cy="675" r="31" fill="#2f80c9"/><circle cx="1415" cy="555" r="31" fill="#f2cb3b"/><circle cx="1438" cy="435" r="31" fill="#2f9d55"/>
    <circle cx="1365" cy="315" r="31" fill="#d8413d"/><circle cx="1245" cy="245" r="31" fill="#f2cb3b"/><circle cx="1110" cy="248" r="31" fill="#2f80c9"/><circle cx="990" cy="292" r="31" fill="#2f9d55"/>
    <circle cx="840" cy="302" r="31" fill="#d8413d"/><circle cx="690" cy="262" r="31" fill="#f2cb3b"/><circle cx="555" cy="207" r="31" fill="#2f9d55"/><circle cx="420" cy="198" r="31" fill="#2f80c9"/>
    <circle cx="285" cy="228" r="31" fill="#d8413d"/><circle cx="165" cy="310" r="31" fill="#f2cb3b"/><circle cx="170" cy="430" r="31" fill="#2f80c9"/><circle cx="305" cy="470" r="31" fill="#2f9d55"/>
  </g>
  <g font-family="system-ui,sans-serif" text-anchor="middle" fill="#17202a">
    <rect x="175" y="175" width="300" height="180" rx="85" fill="#72c96a" stroke="#2a7536" stroke-width="4"/>
    <text x="325" y="255" font-size="34" font-weight="800">Pawsitive</text><text x="325" y="294" font-size="34" font-weight="800">Park</text>
    <rect x="650" y="330" width="300" height="210" rx="55" fill="#8c8f91" stroke="#676a6c" stroke-width="5"/>
    <text x="800" y="378" font-size="33" font-weight="900" fill="#fff">BARKLEY VILLE</text>
    <rect x="675" y="400" width="112" height="110" rx="10" fill="#e9f6ff" stroke="#fff" stroke-width="5"/>
    <text x="731" y="443" font-size="19" font-weight="850">DRAW</text><text x="731" y="468" font-size="19" font-weight="850">TRAINER</text><text x="731" y="493" font-size="19" font-weight="850">CARDS</text>
    <rect x="813" y="400" width="112" height="110" rx="10" fill="#e9f6ff" stroke="#fff" stroke-width="5"/>
    <text x="869" y="442" font-size="17" font-weight="850">K9</text><text x="869" y="466" font-size="17" font-weight="850">COMPETITION</text><text x="869" y="490" font-size="17" font-weight="850">TRACK</text>
    <text x="800" y="578" font-size="24" font-weight="900">K9 COMPETITION TRACK</text>
    <g transform="translate(625 595)">
      <rect width="350" height="48" rx="8" fill="#f7f4e9" stroke="#17202a" stroke-width="4"/>
      <g transform="translate(18 10)" font-size="24"><text x="0">🐾</text><text x="44">🦴</text><text x="88">🥣</text><text x="132">🏅</text><text x="176">🪮</text><text x="220">🐕</text><text x="264">🐕‍🦺</text><text x="308">🐩</text></g>
    </g>
    <rect x="670" y="744" width="270" height="110" rx="55" fill="#69c767" stroke="#2a7536" stroke-width="4"/>
    <text x="805" y="810" font-size="42" font-weight="900">BARKLEY VILLE</text>
    <path d="M1260 735 Q1390 715 1540 785 L1540 860 L1260 860 Z" fill="#f1d184" opacity=".95"/>
    <text x="1455" y="840" font-size="36" font-weight="900">THE BEACH</text>
  </g>
  <g filter="url(#shadow)">
    <circle cx="150" cy="765" r="90" fill="#f6d664" stroke="#fff" stroke-width="10"/>
    <text x="150" y="785" text-anchor="middle" font-family="system-ui,sans-serif" font-size="46" font-weight="950" fill="#17202a">START</text>
    <circle cx="1440" cy="775" r="94" fill="#f6d664" stroke="#fff" stroke-width="10"/>
    <text x="1440" y="760" text-anchor="middle" font-family="system-ui,sans-serif" font-size="46" font-weight="950" fill="#17202a">FINISH</text>
    <text x="1440" y="815" text-anchor="middle" font-family="system-ui,sans-serif" font-size="58">🏆</text>
  </g>
  <g font-family="system-ui,sans-serif" font-size="18" font-weight="800">
    <rect x="32" y="842" width="520" height="34" rx="17" fill="#17202a" opacity=".88"/>
    <text x="292" y="865" text-anchor="middle" fill="#fff">DEVELOPMENT SCHEMATIC — NOT FINAL PRODUCTION ART</text>
  </g>
</svg>
